# xmcd CD database file
#
# Track frame offsets:
#	150
#	16299
#	33719
#	50506
#	71975
#	87078
#	94670
#	120545
#	135848
#	145384
#	164162
#	182042
#
# Disc length: 2695 seconds
#
# Revision: 0
# Processed by: cddbd v1.5.2PL0 Copyright (c) Steve Scherf et al.
# Submitted via: CDex 1.60beta1-cs1
#
DISCID=a80a850c
DTITLE=Ruckus - The Other Side
DYEAR=2007
DGENRE=Country
TTITLE0=A Truckers Wife
TTITLE1=Devil Pub (Went Down to the)
TTITLE2=Down a Country Road
TTITLE3=The Other Side
TTITLE4=Truckin Life
TTITLE5=Happy Rabbit
TTITLE6=When We Were Young
TTITLE7=Get Back to the Country
TTITLE8=Black n White
TTITLE9=Goodbye Earl
TTITLE10=Jackson
TTITLE11=In the Ghetto
EXTD=YEAR: 2007
EXTT0=
EXTT1=
EXTT2=
EXTT3=
EXTT4=
EXTT5=
EXTT6=
EXTT7=
EXTT8=
EXTT9=
EXTT10=
EXTT11=
PLAYORDER=
